# xmcd
#
# Track frame offsets:
#	150
#	12958
#	25640
#	39910
#	52826
#	66928
#	80916
#	92007
#	104383
#	117358
#	130335
#	142712
#	155615
#	169342
#	182993
#	207333
#
# Disc length: 2779 seconds
#
# Revision: 1
# Processed by: cddbd v1.5.2PL0 Copyright (c) Steve Scherf et al.
# Submitted via: audiograbber 1.83.01
#
DISCID=d50ad910
DTITLE=KITTY WELLS - CB90216
DYEAR=1900
DGENRE=
TTITLE0=HEARTBREAK U.S.A.
TTITLE1=IT WASN'T GOD WHO MADE HONKY TONK ANGELS
TTITLE2=ONE BY ONE (DUET)
TTITLE3=AS LONG AS I LIVE (DUET)
TTITLE4=MAKIN' BELIEVE
TTITLE5=YOU AND ME (DUET)
TTITLE6=I CAN'T STOP LOVING YOU
TTITLE7=MOMMY FOR A DAY
TTITLE8=SEARCHING FOR SOMEONE LIKE YOU
TTITLE9=AMIGO'S GUITAR
TTITLE10=MAKE BELIEVE TIL WE CAN.. (DUET)
TTITLE11=THERE'S POISON IN YOUR HEART
TTITLE12=THIS WHITE CIRCLE ON MY FINGER
TTITLE13=JEALOUSY
TTITLE14=LEFT TO RIGHT
TTITLE15=DATA
EXTD=
EXTT0=
EXTT1=
EXTT2=
EXTT3=
EXTT4=
EXTT5=
EXTT6=
EXTT7=
EXTT8=
EXTT9=
EXTT10=
EXTT11=
EXTT12=
EXTT13=
EXTT14=
EXTT15=
PLAYORDER=
